<?xml version="1.0" encoding="UTF-8" standalone="no"?>
<!-- Created with Inkscape (http://www.inkscape.org/) -->

<svg
   xmlns:dc="http://purl.org/dc/elements/1.1/"
   xmlns:cc="http://creativecommons.org/ns#"
   xmlns:rdf="http://www.w3.org/1999/02/22-rdf-syntax-ns#"
   xmlns:svg="http://www.w3.org/2000/svg"
   xmlns="http://www.w3.org/2000/svg"
   xmlns:sodipodi="http://sodipodi.sourceforge.net/DTD/sodipodi-0.dtd"
   xmlns:inkscape="http://www.inkscape.org/namespaces/inkscape"
   width="509.99423"
   height="510.00375"
   id="svg2"
   version="1.1"
   inkscape:version="0.48.4 r9939"
   sodipodi:docname="Dogecoin yellow.svg"
   inkscape:export-filename="/home/clarias/SpiderOak Hive/Projects/Web Projects/Scenoptica/Donation materials/Bitcoin/Bitcoin yellow.png"
   inkscape:export-xdpi="90"
   inkscape:export-ydpi="90">
  <defs
     id="defs4" />
  <sodipodi:namedview
     id="base"
     pagecolor="#ffffff"
     bordercolor="#666666"
     borderopacity="1.0"
     inkscape:pageopacity="0.0"
     inkscape:pageshadow="2"
     inkscape:zoom="1"
     inkscape:cx="398.75742"
     inkscape:cy="291.36652"
     inkscape:document-units="px"
     inkscape:current-layer="layer1"
     showgrid="true"
     inkscape:window-width="1366"
     inkscape:window-height="740"
     inkscape:window-x="0"
     inkscape:window-y="28"
     inkscape:window-maximized="1"
     fit-margin-top="0"
     fit-margin-left="0"
     fit-margin-right="0"
     fit-margin-bottom="0">
    <inkscape:grid
       type="xygrid"
       id="grid3776"
       empspacing="5"
       visible="true"
       enabled="true"
       snapvisiblegridlinesonly="true"
       originx="-55.004177px"
       originy="-295.00073px" />
  </sodipodi:namedview>
  <metadata
     id="metadata7">
    <rdf:RDF>
      <cc:Work
         rdf:about="">
        <dc:format>image/svg+xml</dc:format>
        <dc:type
           rdf:resource="http://purl.org/dc/dcmitype/StillImage" />
        <dc:title></dc:title>
      </cc:Work>
    </rdf:RDF>
  </metadata>
  <g
     inkscape:label="Layer 1"
     inkscape:groupmode="layer"
     id="layer1"
     transform="translate(-55.004177,-247.3577)">
    <rect
       style="fill:#ffdb67;fill-opacity:1;fill-rule:nonzero;stroke:none"
       id="rect2998"
       width="509.99423"
       height="510.00375"
       x="55.004177"
       y="247.3577" />
    <g
       id="elements"
       transform="matrix(2.0732537,0,0,2.0732537,53.416394,245.77705)">
      <path
         style="fill:#000000"
         d="m 8,8 8,0 0,8 -8,0 z m 8,0 8,0 0,8 -8,0 z m 8,0 8,0 0,8 -8,0 z m 8,0 8,0 0,8 -8,0 z m 8,0 8,0 0,8 -8,0 z m 8,0 8,0 0,8 -8,0 z m 8,0 8,0 0,8 -8,0 z m 24,0 8,0 0,8 -8,0 z m 48,0 8,0 0,8 -8,0 z m 8,0 8,0 0,8 -8,0 z m 16,0 8,0 0,8 -8,0 z m 16,0 8,0 0,8 -8,0 z m 16,0 8,0 0,8 -8,0 z m 8,0 8,0 0,8 -8,0 z m 8,0 8,0 0,8 -8,0 z m 8,0 8,0 0,8 -8,0 z m 8,0 8,0 0,8 -8,0 z m 8,0 8,0 0,8 -8,0 z m 8,0 8,0 0,8 -8,0 z m -224,8 8,0 0,8 -8,0 z m 48,0 8,0 0,8 -8,0 z m 16,0 8,0 0,8 -8,0 z m 8,0 8,0 0,8 -8,0 z m 16,0 8,0 0,8 -8,0 z m 8,0 8,0 0,8 -8,0 z m 40,0 8,0 0,8 -8,0 z m 8,0 8,0 0,8 -8,0 z m 32,0 8,0 0,8 -8,0 z m 48,0 8,0 0,8 -8,0 z m -224,8 8,0 0,8 -8,0 z m 16,0 8,0 0,8 -8,0 z m 8,0 8,0 0,8 -8,0 z m 8,0 8,0 0,8 -8,0 z m 16,0 8,0 0,8 -8,0 z m 24,0 8,0 0,8 -8,0 z m 8,0 8,0 0,8 -8,0 z m 8,0 8,0 0,8 -8,0 z m 24,0 8,0 0,8 -8,0 z m 16,0 8,0 0,8 -8,0 z m 24,0 8,0 0,8 -8,0 z m 24,0 8,0 0,8 -8,0 z m 16,0 8,0 0,8 -8,0 z m 8,0 8,0 0,8 -8,0 z m 8,0 8,0 0,8 -8,0 z m 16,0 8,0 0,8 -8,0 z m -224,8 8,0 0,8 -8,0 z m 16,0 8,0 0,8 -8,0 z m 8,0 8,0 0,8 -8,0 z m 8,0 8,0 0,8 -8,0 z m 16,0 8,0 0,8 -8,0 z m 16,0 8,0 0,8 -8,0 z m 8,0 8,0 0,8 -8,0 z m 16,0 8,0 0,8 -8,0 z m 48,0 8,0 0,8 -8,0 z m 16,0 8,0 0,8 -8,0 z m 24,0 8,0 0,8 -8,0 z m 16,0 8,0 0,8 -8,0 z m 8,0 8,0 0,8 -8,0 z m 8,0 8,0 0,8 -8,0 z m 16,0 8,0 0,8 -8,0 z m -224,8 8,0 0,8 -8,0 z m 16,0 8,0 0,8 -8,0 z m 8,0 8,0 0,8 -8,0 z m 8,0 8,0 0,8 -8,0 z m 16,0 8,0 0,8 -8,0 z m 32,0 8,0 0,8 -8,0 z m 16,0 8,0 0,8 -8,0 z m 8,0 8,0 0,8 -8,0 z m 8,0 8,0 0,8 -8,0 z m 8,0 8,0 0,8 -8,0 z m 16,0 8,0 0,8 -8,0 z m 8,0 8,0 0,8 -8,0 z m 8,0 8,0 0,8 -8,0 z m 8,0 8,0 0,8 -8,0 z m 16,0 8,0 0,8 -8,0 z m 16,0 8,0 0,8 -8,0 z m 8,0 8,0 0,8 -8,0 z m 8,0 8,0 0,8 -8,0 z m 16,0 8,0 0,8 -8,0 z m -224,8 8,0 0,8 -8,0 z m 48,0 8,0 0,8 -8,0 z m 16,0 8,0 0,8 -8,0 z m 16,0 8,0 0,8 -8,0 z m 24,0 8,0 0,8 -8,0 z m 8,0 8,0 0,8 -8,0 z m 8,0 8,0 0,8 -8,0 z m 16,0 8,0 0,8 -8,0 z m 8,0 8,0 0,8 -8,0 z m 16,0 8,0 0,8 -8,0 z m 16,0 8,0 0,8 -8,0 z m 48,0 8,0 0,8 -8,0 z m -224,8 8,0 0,8 -8,0 z m 8,0 8,0 0,8 -8,0 z m 8,0 8,0 0,8 -8,0 z m 8,0 8,0 0,8 -8,0 z m 8,0 8,0 0,8 -8,0 z m 8,0 8,0 0,8 -8,0 z m 8,0 8,0 0,8 -8,0 z m 16,0 8,0 0,8 -8,0 z m 16,0 8,0 0,8 -8,0 z m 16,0 8,0 0,8 -8,0 z m 16,0 8,0 0,8 -8,0 z m 16,0 8,0 0,8 -8,0 z m 16,0 8,0 0,8 -8,0 z m 16,0 8,0 0,8 -8,0 z m 16,0 8,0 0,8 -8,0 z m 8,0 8,0 0,8 -8,0 z m 8,0 8,0 0,8 -8,0 z m 8,0 8,0 0,8 -8,0 z m 8,0 8,0 0,8 -8,0 z m 8,0 8,0 0,8 -8,0 z m 8,0 8,0 0,8 -8,0 z m -128,8 8,0 0,8 -8,0 z m 8,0 8,0 0,8 -8,0 z m 40,0 8,0 0,8 -8,0 z m 16,0 8,0 0,8 -8,0 z m -160,8 8,0 0,8 -8,0 z m 8,0 8,0 0,8 -8,0 z m 8,0 8,0 0,8 -8,0 z m 8,0 8,0 0,8 -8,0 z m 8,0 8,0 0,8 -8,0 z m 16,0 8,0 0,8 -8,0 z m 8,0 8,0 0,8 -8,0 z m 8,0 8,0 0,8 -8,0 z m 8,0 8,0 0,8 -8,0 z m 8,0 8,0 0,8 -8,0 z m 16,0 8,0 0,8 -8,0 z m 16,0 8,0 0,8 -8,0 z m 24,0 8,0 0,8 -8,0 z m 24,0 8,0 0,8 -8,0 z m 8,0 8,0 0,8 -8,0 z m 16,0 8,0 0,8 -8,0 z m 16,0 8,0 0,8 -8,0 z m 16,0 8,0 0,8 -8,0 z m -216,8 8,0 0,8 -8,0 z m 8,0 8,0 0,8 -8,0 z m 16,0 8,0 0,8 -8,0 z m 16,0 8,0 0,8 -8,0 z m 32,0 8,0 0,8 -8,0 z m 48,0 8,0 0,8 -8,0 z m 32,0 8,0 0,8 -8,0 z m 8,0 8,0 0,8 -8,0 z m 16,0 8,0 0,8 -8,0 z m 16,0 8,0 0,8 -8,0 z m 8,0 8,0 0,8 -8,0 z m 16,0 8,0 0,8 -8,0 z m -168,8 8,0 0,8 -8,0 z m 24,0 8,0 0,8 -8,0 z m 16,0 8,0 0,8 -8,0 z m 8,0 8,0 0,8 -8,0 z m 24,0 8,0 0,8 -8,0 z m 16,0 8,0 0,8 -8,0 z m 8,0 8,0 0,8 -8,0 z m 16,0 8,0 0,8 -8,0 z m 32,0 8,0 0,8 -8,0 z m 8,0 8,0 0,8 -8,0 z m -192,8 8,0 0,8 -8,0 z m 8,0 8,0 0,8 -8,0 z m 8,0 8,0 0,8 -8,0 z m 8,0 8,0 0,8 -8,0 z m 8,0 8,0 0,8 -8,0 z m 32,0 8,0 0,8 -8,0 z m 8,0 8,0 0,8 -8,0 z m 8,0 8,0 0,8 -8,0 z m 24,0 8,0 0,8 -8,0 z m 8,0 8,0 0,8 -8,0 z m 24,0 8,0 0,8 -8,0 z m 8,0 8,0 0,8 -8,0 z m 32,0 8,0 0,8 -8,0 z m 8,0 8,0 0,8 -8,0 z m 8,0 8,0 0,8 -8,0 z m 24,0 8,0 0,8 -8,0 z m -224,8 8,0 0,8 -8,0 z m 8,0 8,0 0,8 -8,0 z m 8,0 8,0 0,8 -8,0 z m 16,0 8,0 0,8 -8,0 z m 8,0 8,0 0,8 -8,0 z m 8,0 8,0 0,8 -8,0 z m 8,0 8,0 0,8 -8,0 z m 8,0 8,0 0,8 -8,0 z m 8,0 8,0 0,8 -8,0 z m 16,0 8,0 0,8 -8,0 z m 32,0 8,0 0,8 -8,0 z m 8,0 8,0 0,8 -8,0 z m 8,0 8,0 0,8 -8,0 z m 16,0 8,0 0,8 -8,0 z m 56,0 8,0 0,8 -8,0 z m 8,0 8,0 0,8 -8,0 z m -208,8 8,0 0,8 -8,0 z m 8,0 8,0 0,8 -8,0 z m 16,0 8,0 0,8 -8,0 z m 8,0 8,0 0,8 -8,0 z m 24,0 8,0 0,8 -8,0 z m 8,0 8,0 0,8 -8,0 z m 8,0 8,0 0,8 -8,0 z m 16,0 8,0 0,8 -8,0 z m 8,0 8,0 0,8 -8,0 z m 8,0 8,0 0,8 -8,0 z m 8,0 8,0 0,8 -8,0 z m 8,0 8,0 0,8 -8,0 z m 16,0 8,0 0,8 -8,0 z m 8,0 8,0 0,8 -8,0 z m 8,0 8,0 0,8 -8,0 z m 8,0 8,0 0,8 -8,0 z m 8,0 8,0 0,8 -8,0 z m 8,0 8,0 0,8 -8,0 z m 8,0 8,0 0,8 -8,0 z m 8,0 8,0 0,8 -8,0 z m 16,0 8,0 0,8 -8,0 z m 8,0 8,0 0,8 -8,0 z m -216,8 8,0 0,8 -8,0 z m 8,0 8,0 0,8 -8,0 z m 24,0 8,0 0,8 -8,0 z m 8,0 8,0 0,8 -8,0 z m 8,0 8,0 0,8 -8,0 z m 24,0 8,0 0,8 -8,0 z m 24,0 8,0 0,8 -8,0 z m 8,0 8,0 0,8 -8,0 z m 8,0 8,0 0,8 -8,0 z m 8,0 8,0 0,8 -8,0 z m 8,0 8,0 0,8 -8,0 z m 32,0 8,0 0,8 -8,0 z m 16,0 8,0 0,8 -8,0 z m 16,0 8,0 0,8 -8,0 z m 8,0 8,0 0,8 -8,0 z m -208,8 8,0 0,8 -8,0 z m 24,0 8,0 0,8 -8,0 z m 8,0 8,0 0,8 -8,0 z m 32,0 8,0 0,8 -8,0 z m 32,0 8,0 0,8 -8,0 z m 8,0 8,0 0,8 -8,0 z m 40,0 8,0 0,8 -8,0 z m 8,0 8,0 0,8 -8,0 z m 40,0 8,0 0,8 -8,0 z m 8,0 8,0 0,8 -8,0 z m -184,8 8,0 0,8 -8,0 z m 8,0 8,0 0,8 -8,0 z m 8,0 8,0 0,8 -8,0 z m 8,0 8,0 0,8 -8,0 z m 8,0 8,0 0,8 -8,0 z m 8,0 8,0 0,8 -8,0 z m 40,0 8,0 0,8 -8,0 z m 16,0 8,0 0,8 -8,0 z m 8,0 8,0 0,8 -8,0 z m 8,0 8,0 0,8 -8,0 z m 8,0 8,0 0,8 -8,0 z m 72,0 8,0 0,8 -8,0 z m 8,0 8,0 0,8 -8,0 z m -216,8 8,0 0,8 -8,0 z m 40,0 8,0 0,8 -8,0 z m 16,0 8,0 0,8 -8,0 z m 8,0 8,0 0,8 -8,0 z m 16,0 8,0 0,8 -8,0 z m 48,0 8,0 0,8 -8,0 z m 8,0 8,0 0,8 -8,0 z m 8,0 8,0 0,8 -8,0 z m 8,0 8,0 0,8 -8,0 z m 8,0 8,0 0,8 -8,0 z m 16,0 8,0 0,8 -8,0 z m 8,0 8,0 0,8 -8,0 z m 8,0 8,0 0,8 -8,0 z m 8,0 8,0 0,8 -8,0 z m 8,0 8,0 0,8 -8,0 z m 8,0 8,0 0,8 -8,0 z m -216,8 8,0 0,8 -8,0 z m 16,0 8,0 0,8 -8,0 z m 32,0 8,0 0,8 -8,0 z m 24,0 8,0 0,8 -8,0 z m 8,0 8,0 0,8 -8,0 z m 8,0 8,0 0,8 -8,0 z m 8,0 8,0 0,8 -8,0 z m 24,0 8,0 0,8 -8,0 z m 8,0 8,0 0,8 -8,0 z m 8,0 8,0 0,8 -8,0 z m 24,0 8,0 0,8 -8,0 z m 8,0 8,0 0,8 -8,0 z m 8,0 8,0 0,8 -8,0 z m 8,0 8,0 0,8 -8,0 z m 8,0 8,0 0,8 -8,0 z m 8,0 8,0 0,8 -8,0 z m -200,8 8,0 0,8 -8,0 z m 24,0 8,0 0,8 -8,0 z m 8,0 8,0 0,8 -8,0 z m 24,0 8,0 0,8 -8,0 z m 32,0 8,0 0,8 -8,0 z m 24,0 8,0 0,8 -8,0 z m 8,0 8,0 0,8 -8,0 z m 32,0 8,0 0,8 -8,0 z m 32,0 8,0 0,8 -8,0 z m 8,0 8,0 0,8 -8,0 z m 24,0 8,0 0,8 -8,0 z m -216,8 8,0 0,8 -8,0 z m 16,0 8,0 0,8 -8,0 z m 24,0 8,0 0,8 -8,0 z m 8,0 8,0 0,8 -8,0 z m 8,0 8,0 0,8 -8,0 z m 8,0 8,0 0,8 -8,0 z m 16,0 8,0 0,8 -8,0 z m 8,0 8,0 0,8 -8,0 z m 32,0 8,0 0,8 -8,0 z m 16,0 8,0 0,8 -8,0 z m 24,0 8,0 0,8 -8,0 z m 8,0 8,0 0,8 -8,0 z m 8,0 8,0 0,8 -8,0 z m 8,0 8,0 0,8 -8,0 z m 8,0 8,0 0,8 -8,0 z m 8,0 8,0 0,8 -8,0 z m 8,0 8,0 0,8 -8,0 z m -144,8 8,0 0,8 -8,0 z m 32,0 8,0 0,8 -8,0 z m 8,0 8,0 0,8 -8,0 z m 8,0 8,0 0,8 -8,0 z m 16,0 8,0 0,8 -8,0 z m 16,0 8,0 0,8 -8,0 z m 8,0 8,0 0,8 -8,0 z m 8,0 8,0 0,8 -8,0 z m 32,0 8,0 0,8 -8,0 z m 16,0 8,0 0,8 -8,0 z m 8,0 8,0 0,8 -8,0 z m -216,8 8,0 0,8 -8,0 z m 8,0 8,0 0,8 -8,0 z m 8,0 8,0 0,8 -8,0 z m 8,0 8,0 0,8 -8,0 z m 8,0 8,0 0,8 -8,0 z m 8,0 8,0 0,8 -8,0 z m 8,0 8,0 0,8 -8,0 z m 16,0 8,0 0,8 -8,0 z m 8,0 8,0 0,8 -8,0 z m 32,0 8,0 0,8 -8,0 z m 8,0 8,0 0,8 -8,0 z m 8,0 8,0 0,8 -8,0 z m 40,0 8,0 0,8 -8,0 z m 16,0 8,0 0,8 -8,0 z m 16,0 8,0 0,8 -8,0 z m 8,0 8,0 0,8 -8,0 z m -200,8 8,0 0,8 -8,0 z m 48,0 8,0 0,8 -8,0 z m 32,0 8,0 0,8 -8,0 z m 16,0 8,0 0,8 -8,0 z m 8,0 8,0 0,8 -8,0 z m 40,0 8,0 0,8 -8,0 z m 8,0 8,0 0,8 -8,0 z m 8,0 8,0 0,8 -8,0 z m 32,0 8,0 0,8 -8,0 z m 8,0 8,0 0,8 -8,0 z m 24,0 8,0 0,8 -8,0 z m -224,8 8,0 0,8 -8,0 z m 16,0 8,0 0,8 -8,0 z m 8,0 8,0 0,8 -8,0 z m 8,0 8,0 0,8 -8,0 z m 16,0 8,0 0,8 -8,0 z m 16,0 8,0 0,8 -8,0 z m 8,0 8,0 0,8 -8,0 z m 8,0 8,0 0,8 -8,0 z m 16,0 8,0 0,8 -8,0 z m 16,0 8,0 0,8 -8,0 z m 8,0 8,0 0,8 -8,0 z m 40,0 8,0 0,8 -8,0 z m 8,0 8,0 0,8 -8,0 z m 8,0 8,0 0,8 -8,0 z m 8,0 8,0 0,8 -8,0 z m 8,0 8,0 0,8 -8,0 z m 24,0 8,0 0,8 -8,0 z m -216,8 8,0 0,8 -8,0 z m 16,0 8,0 0,8 -8,0 z m 8,0 8,0 0,8 -8,0 z m 8,0 8,0 0,8 -8,0 z m 16,0 8,0 0,8 -8,0 z m 16,0 8,0 0,8 -8,0 z m 8,0 8,0 0,8 -8,0 z m 56,0 8,0 0,8 -8,0 z m 8,0 8,0 0,8 -8,0 z m 8,0 8,0 0,8 -8,0 z m 8,0 8,0 0,8 -8,0 z m 16,0 8,0 0,8 -8,0 z m 16,0 8,0 0,8 -8,0 z m 8,0 8,0 0,8 -8,0 z m 8,0 8,0 0,8 -8,0 z m 16,0 8,0 0,8 -8,0 z m 8,0 8,0 0,8 -8,0 z m -224,8 8,0 0,8 -8,0 z m 16,0 8,0 0,8 -8,0 z m 8,0 8,0 0,8 -8,0 z m 8,0 8,0 0,8 -8,0 z m 16,0 8,0 0,8 -8,0 z m 16,0 8,0 0,8 -8,0 z m 8,0 8,0 0,8 -8,0 z m 8,0 8,0 0,8 -8,0 z m 8,0 8,0 0,8 -8,0 z m 8,0 8,0 0,8 -8,0 z m 24,0 8,0 0,8 -8,0 z m 24,0 8,0 0,8 -8,0 z m 16,0 8,0 0,8 -8,0 z m 16,0 8,0 0,8 -8,0 z m 8,0 8,0 0,8 -8,0 z m 8,0 8,0 0,8 -8,0 z m 8,0 8,0 0,8 -8,0 z m 8,0 8,0 0,8 -8,0 z m 8,0 8,0 0,8 -8,0 z m -216,8 8,0 0,8 -8,0 z m 48,0 8,0 0,8 -8,0 z m 16,0 8,0 0,8 -8,0 z m 16,0 8,0 0,8 -8,0 z m 8,0 8,0 0,8 -8,0 z m 24,0 8,0 0,8 -8,0 z m 16,0 8,0 0,8 -8,0 z m 16,0 8,0 0,8 -8,0 z m 16,0 8,0 0,8 -8,0 z m 8,0 8,0 0,8 -8,0 z m 32,0 8,0 0,8 -8,0 z m 16,0 8,0 0,8 -8,0 z m -216,8 8,0 0,8 -8,0 z m 8,0 8,0 0,8 -8,0 z m 8,0 8,0 0,8 -8,0 z m 8,0 8,0 0,8 -8,0 z m 8,0 8,0 0,8 -8,0 z m 8,0 8,0 0,8 -8,0 z m 8,0 8,0 0,8 -8,0 z m 16,0 8,0 0,8 -8,0 z m 8,0 8,0 0,8 -8,0 z m 16,0 8,0 0,8 -8,0 z m 48,0 8,0 0,8 -8,0 z m 16,0 8,0 0,8 -8,0 z m 24,0 8,0 0,8 -8,0 z m 8,0 8,0 0,8 -8,0 z m 8,0 8,0 0,8 -8,0 z m 8,0 8,0 0,8 -8,0 z"
         id="path11"
         inkscape:connector-curvature="0" />
    </g>
  </g>
</svg>
