<?xml version="1.0" encoding="UTF-8" standalone="no"?>
<!-- Created with Inkscape (http://www.inkscape.org/) -->

<svg
   xmlns:dc="http://purl.org/dc/elements/1.1/"
   xmlns:cc="http://creativecommons.org/ns#"
   xmlns:rdf="http://www.w3.org/1999/02/22-rdf-syntax-ns#"
   xmlns:svg="http://www.w3.org/2000/svg"
   xmlns="http://www.w3.org/2000/svg"
   xmlns:sodipodi="http://sodipodi.sourceforge.net/DTD/sodipodi-0.dtd"
   xmlns:inkscape="http://www.inkscape.org/namespaces/inkscape"
   width="509.99423"
   height="510.00375"
   id="svg2"
   version="1.1"
   inkscape:version="0.48.4 r9939"
   sodipodi:docname="Bitcoin yellow.svg">
  <defs
     id="defs4" />
  <sodipodi:namedview
     id="base"
     pagecolor="#ffffff"
     bordercolor="#666666"
     borderopacity="1.0"
     inkscape:pageopacity="0.0"
     inkscape:pageshadow="2"
     inkscape:zoom="0.5"
     inkscape:cx="-175.54351"
     inkscape:cy="492.24107"
     inkscape:document-units="px"
     inkscape:current-layer="layer1"
     showgrid="true"
     inkscape:window-width="1366"
     inkscape:window-height="740"
     inkscape:window-x="0"
     inkscape:window-y="28"
     inkscape:window-maximized="1"
     fit-margin-top="0"
     fit-margin-left="0"
     fit-margin-right="0"
     fit-margin-bottom="0">
    <inkscape:grid
       type="xygrid"
       id="grid3776"
       empspacing="5"
       visible="true"
       enabled="true"
       snapvisiblegridlinesonly="true"
       originx="-55.004177px"
       originy="-295.00073px" />
  </sodipodi:namedview>
  <metadata
     id="metadata7">
    <rdf:RDF>
      <cc:Work
         rdf:about="">
        <dc:format>image/svg+xml</dc:format>
        <dc:type
           rdf:resource="http://purl.org/dc/dcmitype/StillImage" />
        <dc:title />
      </cc:Work>
    </rdf:RDF>
  </metadata>
  <g
     inkscape:label="Layer 1"
     inkscape:groupmode="layer"
     id="layer1"
     transform="translate(-55.004177,-247.3577)">
    <rect
       style="fill:#ffdb67;fill-opacity:1;fill-rule:nonzero;stroke:none"
       id="rect2998"
       width="509.99423"
       height="510.00375"
       x="55.004177"
       y="247.3577" />
    <path
       style="fill:#000000"
       d="m 69.999956,697.86059 0,-45.5 45.499994,0 45.5,0 0,45.5 0,45.5 -45.5,0 -45.499994,0 0,-45.5 z m 77.999994,0 0,-32.5 -32.5,0 -32.499998,0 0,32.5 0,32.50001 32.499998,0 32.5,0 0,-32.50001 z m -51.999998,0 0,-19.5 19.499998,0 19.5,0 0,19.5 0,19.50001 -19.5,0 -19.499998,0 0,-19.50001 z m 90.999998,26.00001 0,-19.50001 -6.5,0 -6.5,0 0,-6.5 0,-6.5 13,0 13,0 0,-6.5 0,-6.5 -6.5,0 -6.5,0 0,-13 0,-13 -6.5,0 -6.5,0 0,-6.5 0,-6.5 -19.5,0 -19.5,0 0,-6.5 0,-6.5 -6.5,0 -6.5,0 0,6.5 0,6.5 -6.5,0 -6.50004,0 0,-6.5 0,-6.5 -6.5,0 -6.499958,0 0,6.5 0,6.5 -13,0 -12.999996,0 0,-6.5 0,-6.5 6.5,0 6.499996,0 0,-6.5 0,-6.5 -6.499996,0 -6.5,0 0,-6.5 0,-6.5 6.5,0 6.499996,0 0,6.5 0,6.5 6.5,0 6.5,0 0,-6.5 0,-6.5 6.499958,0 6.5,0 0,-13 0,-13 13.00004,0 13,0 0,-13 0,-13 -6.5,0 -6.5,0 0,6.5 0,6.5 -6.5,0 -6.50004,0 0,-6.5 0,-6.5 6.50004,0 6.5,0 0,-13 0,-13 19.5,0 19.5,0 0,-6.5 0,-6.5 -32.5,0 -32.499998,0 0,-6.5 0,-6.5 -6.5,0 -6.5,0 0,6.5 0,6.5 -6.499996,0 -6.5,0 0,-6.5 0,-6.5 6.5,0 6.499996,0 0,-6.5 0,-6.5 -6.499996,0 -6.5,0 0,-6.5 0,-6.5 12.999996,0 13,0 0,-6.5 0,-6.5 -6.5,0 -6.5,0 0,-6.5 0,-6.5 6.5,0 6.5,0 0,6.5 0,6.5 6.499958,0 6.5,0 0,-32.5 0,-32.5 -6.5,0 -6.499958,0 0,13 0,13 -6.5,0 -6.5,0 0,6.5 0,6.5 -6.499996,0 -6.5,0 0,-6.5 0,-6.5 6.5,0 6.499996,0 0,-19.5 0,-19.5 13,0 12.999958,0 0,-6.5 0,-6.5 6.50004,0 6.5,0 0,13 0,13 26,0 26,0 0,6.5 0,6.5 -19.5,0 -19.5,0 0,6.5 0,6.5 26,0 26,0 0,-6.5 0,-6.5 6.5,0 6.5,0 0,-6.5 0,-6.5 -6.5,0 -6.5,0 0,-19.5 0,-19.5 -6.5,0 -6.5,0 0,-26 0,-26 6.5,0 6.5,0 0,-6.5 0,-6.5 -6.5,0 -6.5,0 0,-13 0,-13 6.5,0 6.5,0 0,13 0,13 6.5,0 6.5,0 0,-13 0,-13 19.50001,0 19.5,0 0,26 0,26 19.5,0 19.5,0 0,6.5 0,6.5 6.5,0 6.5,0 0,-13 0,-13 -13,0 -13,0 0,-6.5 0,-6.5 -6.5,0 -6.5,0 0,-6.5 0,-6.5 6.5,0 6.5,0 0,-6.5 0,-6.5 13,0 13,0 0,6.5 0,6.5 6.5,0 6.5,0 0,-6.5 0,-6.5 6.5,0 6.5,0 0,13 0,13 6.5,0 6.5,0 0,-6.5 0,-6.5 13,0 13,0 0,-6.5 0,-6.5 19.5,0 19.5,0 0,13 0,13 -6.5,0 -6.5,0 0,-6.5 0,-6.5 -6.5,0 -6.5,0 0,6.5 0,6.5 -19.5,0 -19.5,0 0,13 0,13 6.5,0 6.5,0 0,-6.5 0,-6.5 19.5,0 19.5,0 0,6.5 0,6.5 13,0 13,0 0,6.5 0,6.5 6.5,0 6.5,0 0,-13 0,-13 -6.5,0 -6.5,0 0,-13 0,-13 13,0 13,0 0,13 0,13 6.5,0 6.5,0 0,6.5 0,6.5 -6.5,0 -6.5,0 0,13 0,13 6.5,0 6.5,0 0,6.5 0,6.5 -6.5,0 -6.5,0 0,-6.5 0,-6.5 -6.5,0 -6.5,0 0,13 0,13 6.5,0 6.5,0 0,6.5 0,6.5 19.5,0 19.5,0 0,-6.5 0,-6.5 19.5,0 19.49999,0 0,6.5 0,6.5 6.5,0 6.5,0 0,-6.5 0,-6.5 13,0 13,0 0,6.5 0,6.5 -13,0 -13,0 0,6.5 0,6.5 13,0 13,0 0,6.5 0,6.5 -19.5,0 -19.5,0 0,-6.5 0,-6.5 -6.5,0 -6.49999,0 0,-6.5 0,-6.5 -13,0 -13,0 0,6.5 0,6.5 6.5,0 6.5,0 0,6.5 0,6.5 -6.5,0 -6.5,0 0,13 0,13 6.5,0 6.5,0 0,-6.5 0,-6.5 13,0 12.99999,0 0,6.5 0,6.5 6.5,0 6.5,0 0,-6.5 0,-6.5 13,0 13,0 0,6.5 0,6.5 -6.5,0 -6.5,0 0,6.5 0,6.5 6.5,0 6.5,0 0,6.5 0,6.5 -6.5,0 -6.5,0 0,6.5 0,6.5 -6.5,0 -6.5,0 0,13 0,13 6.5,0 6.5,0 0,-6.5 0,-6.5 6.5,0 6.5,0 0,19.5 0,19.5 -6.5,0 -6.5,0 0,6.5 0,6.5 6.5,0 6.5,0 0,45.5 0,45.5 -6.5,0 -6.5,0 0,6.5 0,6.5 6.5,0 6.5,0 0,13 0,13 -6.5,0 -6.5,0 0,6.5 0,6.5 -13,0 -13,0 0,13 0,13 6.5,0 6.5,0 0,-6.5 0,-6.5 13,0 13,0 0,13 0,13.00001 -6.5,0 -6.5,0 0,-6.50001 0,-6.5 -6.5,0 -6.5,0 0,6.5 0,6.50001 -6.5,0 -6.5,0 0,13 0,12.99999 -12.99999,0 -13,0 0,-19.49999 0,-19.50001 -6.5,0 -6.5,0 0,-6.5 0,-6.5 -19.5,0 -19.5,0 0,-6.5 0,-6.5 -6.5,0 -6.5,0 0,6.5 0,6.5 -6.5,0 -6.5,0 0,13 0,13.00001 6.5,0 6.5,0 0,-6.50001 0,-6.5 6.5,0 6.5,0 0,6.5 0,6.50001 6.5,0 6.5,0 0,13 0,12.99999 -6.5,0 -6.5,0 0,-12.99999 0,-13 -6.5,0 -6.5,0 0,6.5 0,6.5 -6.5,0 -6.5,0 0,6.5 0,6.49999 -32.5,0 -32.5,0 0,-25.99999 0,-26.00001 -6.5,0 -6.5,0 0,26.00001 0,25.99999 -19.5,0 -19.5,0 0,-6.49999 0,-6.5 13,0 13,0 0,-13 0,-13.00001 -6.5,0 -6.5,0 0,6.5 0,6.50001 -13,0 -13,0 0,6.5 0,6.5 -6.5,0 -6.5,0 0,6.5 0,6.49999 -13,0 -13,0 0,-6.49999 0,-6.5 -6.5,0 -6.5,0 0,-6.5 0,-6.5 -6.5,0 -6.50001,0 0,13 0,12.99999 -13,0 -13,0 0,-19.49999 z m 65.00001,0 0,-6.5 13,0 13,0 0,-6.50001 0,-6.5 6.5,0 6.5,0 0,-13 0,-13 -6.5,0 -6.5,0 0,-6.5 0,-6.5 19.5,0 19.5,0 0,-6.5 0,-6.5 6.5,0 6.5,0 0,6.5 0,6.5 19.5,0 19.5,0 0,6.5 0,6.5 6.5,0 6.5,0 0,-13 0,-13 -6.5,0 -6.5,0 0,-6.5 0,-6.5 6.5,0 6.5,0 0,-6.5 0,-6.5 6.5,0 6.5,0 0,-6.5 0,-6.5 19.5,0 19.5,0 0,6.5 0,6.5 13,0 13,0 0,-6.5 0,-6.5 19.5,0 19.5,0 0,13 0,13 6.49999,0 6.5,0 0,-6.5 0,-6.5 6.5,0 6.5,0 0,-6.5 0,-6.5 -13,0 -12.99999,0 0,-13 0,-13 6.49999,0 6.5,0 0,-6.5 0,-6.5 6.5,0 6.5,0 0,13 0,13 6.5,0 6.5,0 0,-13 0,-13 -6.5,0 -6.5,0 0,-6.5 0,-6.5 -6.5,0 -6.5,0 0,-6.5 0,-6.5 6.5,0 6.5,0 0,-13 0,-13 -6.5,0 -6.5,0 0,-6.5 0,-6.5 6.5,0 6.5,0 0,-6.5 0,-6.5 -19.5,0 -19.49999,0 0,-13 0,-13 6.5,0 6.5,0 0,6.5 0,6.5 6.49999,0 6.5,0 0,-6.5 0,-6.5 6.5,0 6.5,0 0,-6.5 0,-6.5 6.5,0 6.5,0 0,-6.5 0,-6.5 -19.5,0 -19.49999,0 0,-6.5 0,-6.5 -6.5,0 -6.5,0 0,6.5 0,6.5 -6.5,0 -6.5,0 0,6.5 0,6.5 -13,0 -13,0 0,-13 0,-13 -6.5,0 -6.5,0 0,-6.5 0,-6.5 -6.5,0 -6.5,0 0,6.5 0,6.5 6.5,0 6.5,0 0,6.5 0,6.5 -19.5,0 -19.5,0 0,-13 0,-13 -13,0 -13,0 0,-13 0,-13 6.5,0 6.5,0 0,6.5 0,6.5 13,0 13,0 0,-13 0,-13 6.5,0 6.5,0 0,-6.5 0,-6.5 -6.5,0 -6.5,0 0,-13 0,-13 -6.5,0 -6.5,0 0,13 0,13 -13,0 -13,0 0,-6.5 0,-6.5 6.5,0 6.5,0 0,-6.5 0,-6.5 -6.5,0 -6.5,0 0,6.5 0,6.5 -6.5,0 -6.5,0 0,-13 0,-13 6.5,0 6.5,0 0,-6.5 0,-6.5 -13,0 -13,0 0,19.5 0,19.5 -6.5,0 -6.5,0 0,-6.5 0,-6.5 -6.5,0 -6.5,0 0,-6.5 0,-6.5 6.5,0 6.5,0 0,-6.5 0,-6.5 -6.5,0 -6.5,0 0,-6.5 0,-6.5 -6.5,0 -6.5,0 0,-6.5 0,-6.5 -6.5,0 -6.5,0 0,-6.5 0,-6.5 -13,0 -13,0 0,6.5 0,6.5 13,0 13,0 0,6.5 0,6.5 6.5,0 6.5,0 0,19.5 0,19.5 -6.5,0 -6.5,0 0,6.5 0,6.5 -6.5,0 -6.5,0 0,-13 0,-13 -6.5,0 -6.5,0 0,13 0,13 -6.5,0 -6.5,0 0,-13 0,-13 -6.5,0 -6.5,0 0,13 0,13 6.5,0 6.5,0 0,6.5 0,6.5 -13,0 -13,0 0,-13 0,-13 -6.5,0 -6.50001,0 0,-6.5 0,-6.5 -6.5,0 -6.5,0 0,-6.5 0,-6.5 6.5,0 6.5,0 0,-6.5 0,-6.5 6.50001,0 6.5,0 0,-13 0,-13 -6.5,0 -6.50001,0 0,13 0,13 -6.5,0 -6.5,0 0,6.5 0,6.5 -6.5,0 -6.5,0 0,6.5 0,6.5 6.5,0 6.5,0 0,6.5 0,6.5 -6.5,0 -6.5,0 0,6.5 0,6.5 6.5,0 6.5,0 0,-6.5 0,-6.5 6.5,0 6.5,0 0,13 0,13 6.50001,0 6.5,0 0,6.5 0,6.5 -13.00001,0 -13,0 0,6.5 0,6.5 6.5,0 6.5,0 0,6.5 0,6.5 6.50001,0 6.5,0 0,6.5 0,6.5 13,0 13,0 0,19.5 0,19.5 6.5,0 6.5,0 0,-19.5 0,-19.5 6.5,0 6.5,0 0,13 0,13 6.5,0 6.5,0 0,6.5 0,6.5 6.5,0 6.5,0 0,-6.5 0,-6.5 13,0 13,0 0,6.5 0,6.5 6.5,0 6.5,0 0,19.5 0,19.5 -6.5,0 -6.5,0 0,-6.5 0,-6.5 -13,0 -13,0 0,-6.5 0,-6.5 -13,0 -13,0 0,6.5 0,6.5 6.5,0 6.5,0 0,6.5 0,6.5 13,0 13,0 0,6.5 0,6.5 -6.5,0 -6.5,0 0,6.5 0,6.5 -6.5,0 -6.5,0 0,-6.5 0,-6.5 -6.5,0 -6.5,0 0,6.5 0,6.5 -6.5,0 -6.5,0 0,-6.5 0,-6.5 -6.5,0 -6.5,0 0,-13 0,-13 6.5,0 6.5,0 0,-6.5 0,-6.5 -13,0 -13,0 0,-6.5 0,-6.5 -6.5,0 -6.5,0 0,6.5 0,6.5 6.5,0 6.5,0 0,6.5 0,6.5 -6.5,0 -6.5,0 0,6.5 0,6.5 -13.00001,0 -13,0 0,-6.5 0,-6.5 -39,0 -39,0 0,6.5 0,6.5 26,0 26,0 0,6.5 0,6.5 6.5,0 6.5,0 0,-6.5 0,-6.5 6.5,0 6.5,0 0,13 0,13 -6.5,0 -6.5,0 0,6.5 0,6.5 13,0 13,0 0,6.5 0,6.5 -19.5,0 -19.5,0 0,-6.5 0,-6.5 -13,0 -13,0 0,6.5 0,6.5 6.5,0 6.5,0 0,6.5 0,6.5 -6.5,0 -6.5,0 0,6.5 0,6.5 13,0 13,0 0,6.5 0,6.5 -13,0 -13,0 0,6.5 0,6.5 6.5,0 6.5,0 0,6.5 0,6.5 -13,0 -13,0 0,6.5 0,6.5 13,0 13,0 0,-6.5 0,-6.5 13,0 13,0 0,-19.5 0,-19.5 6.5,0 6.5,0 0,13 0,13 6.5,0 6.5,0 0,-6.5 0,-6.5 6.50001,0 6.5,0 0,13 0,13 -6.5,0 -6.50001,0 0,6.5 0,6.5 -6.5,0 -6.5,0 0,6.5 0,6.5 6.5,0 6.5,0 0,19.5 0,19.5 6.50001,0 6.5,0 0,6.5 0,6.5 -13.00001,0 -13,0 0,13 0,13.00001 6.5,0 6.5,0 0,-6.50001 0,-6.5 6.50001,0 6.5,0 0,6.5 0,6.50001 6.5,0 6.5,0 0,6.5 0,6.5 6.5,0 6.5,0 0,-6.5 z m -13,-13.00001 0,-6.5 6.5,0 6.5,0 0,-13 0,-13 13,0 13,0 0,6.5 0,6.5 -6.5,0 -6.5,0 0,6.5 0,6.5 -6.5,0 -6.5,0 0,6.5 0,6.50001 -6.5,0 -6.5,0 0,-6.50001 z m -13,-39 0,-6.5 6.5,0 6.5,0 0,-13 0,-13 -13,0 -13.00001,0 0,-6.5 0,-6.5 6.50001,0 6.5,0 0,-6.5 0,-6.5 13,0 13,0 0,-6.5 0,-6.5 6.5,0 6.5,0 0,6.5 0,6.5 -6.5,0 -6.5,0 0,6.5 0,6.5 -6.5,0 -6.5,0 0,6.5 0,6.5 13,0 13,0 0,-6.5 0,-6.5 6.5,0 6.5,0 0,-26 0,-26 -6.5,0 -6.5,0 0,6.5 0,6.5 -6.5,0 -6.5,0 0,-6.5 0,-6.5 -6.5,0 -6.5,0 0,6.5 0,6.5 -6.5,0 -6.5,0 0,-6.5 0,-6.5 -13.00001,0 -13,0 0,-6.5 0,-6.5 6.5,0 6.5,0 0,-6.5 0,-6.5 6.50001,0 6.5,0 0,6.5 0,6.5 13,0 13,0 0,6.5 0,6.5 6.5,0 6.5,0 0,-6.5 0,-6.5 6.5,0 6.5,0 0,6.5 0,6.5 6.5,0 6.5,0 0,-13 0,-13 -13,0 -13,0 0,-6.5 0,-6.5 39,0 39,0 0,6.5 0,6.5 6.5,0 6.5,0 0,-6.5 0,-6.5 6.5,0 6.5,0 0,-6.5 0,-6.5 -13,0 -13,0 0,-13 0,-13 6.5,0 6.5,0 0,6.5 0,6.5 6.5,0 6.5,0 0,6.5 0,6.5 6.5,0 6.5,0 0,-19.5 0,-19.5 -6.5,0 -6.5,0 0,-13 0,-13 6.5,0 6.5,0 0,-6.5 0,-6.5 -6.5,0 -6.5,0 0,-6.5 0,-6.5 6.5,0 6.5,0 0,6.5 0,6.5 6.5,0 6.5,0 0,6.5 0,6.5 6.5,0 6.5,0 0,6.5 0,6.5 6.5,0 6.5,0 0,6.5 0,6.5 13,0 13,0 0,-6.5 0,-6.5 -6.5,0 -6.5,0 0,-6.5 0,-6.5 6.5,0 6.5,0 0,6.5 0,6.5 13,0 13,0 0,13 0,13 6.5,0 6.5,0 0,6.5 0,6.5 -13,0 -13,0 0,6.5 0,6.5 6.5,0 6.5,0 0,6.5 0,6.5 -6.5,0 -6.5,0 0,-6.5 0,-6.5 -6.5,0 -6.5,0 0,13 0,13 26,0 26,0 0,-6.5 0,-6.5 -6.5,0 -6.5,0 0,-6.5 0,-6.5 6.5,0 6.5,0 0,6.5 0,6.5 6.49999,0 6.5,0 0,6.5 0,6.5 -6.5,0 -6.49999,0 0,13 0,13 -6.5,0 -6.5,0 0,-6.5 0,-6.5 -6.5,0 -6.5,0 0,13 0,13 6.5,0 6.5,0 0,6.5 0,6.5 -6.5,0 -6.5,0 0,-6.5 0,-6.5 -6.5,0 -6.5,0 0,6.5 0,6.5 -6.5,0 -6.5,0 0,6.5 0,6.5 -6.5,0 -6.5,0 0,-6.5 0,-6.5 6.5,0 6.5,0 0,-6.5 0,-6.5 -19.5,0 -19.5,0 0,-6.5 0,-6.5 -13,0 -13,0 0,-6.5 0,-6.5 -6.5,0 -6.5,0 0,-6.5 0,-6.5 -6.5,0 -6.5,0 0,6.5 0,6.5 -13,0 -13,0 0,-6.5 0,-6.5 -6.5,0 -6.5,0 0,19.5 0,19.5 6.5,0 6.5,0 0,-6.5 0,-6.5 13,0 13,0 0,6.5 0,6.5 -13,0 -13,0 0,6.5 0,6.5 -6.5,0 -6.5,0 0,-6.5 0,-6.5 -6.5,0 -6.5,0 0,13 0,13 6.5,0 6.5,0 0,13 0,13 -6.5,0 -6.5,0 0,-6.5 0,-6.5 -13,0 -13,0 0,6.5 0,6.5 -6.5,0 -6.5,0 0,6.5 0,6.5 -6.5,0 -6.5,0 0,6.5 0,6.5 -6.5,0 -6.5,0 0,6.5 0,6.5 -6.5,0 -6.5,0 0,-6.5 z m 78,-91 0,-6.5 -6.5,0 -6.5,0 0,6.5 0,6.5 6.5,0 6.5,0 0,-6.5 z m 117,-13 0,-6.5 6.5,0 6.5,0 0,6.5 0,6.5 6.5,0 6.5,0 0,-6.5 0,-6.5 -6.5,0 -6.5,0 0,-19.5 0,-19.5 6.5,0 6.5,0 0,-13 0,-13 6.5,0 6.5,0 0,-6.5 0,-6.5 -6.5,0 -6.5,0 0,6.5 0,6.5 -13,0 -13,0 0,-6.5 0,-6.5 -6.5,0 -6.5,0 0,-6.5 0,-6.5 -6.5,0 -6.5,0 0,-6.5 0,-6.5 -6.5,0 -6.5,0 0,6.5 0,6.5 6.5,0 6.5,0 0,6.5 0,6.5 6.5,0 6.5,0 0,6.5 0,6.5 6.5,0 6.5,0 0,19.5 0,19.5 -6.5,0 -6.5,0 0,-13 0,-13 -6.5,0 -6.5,0 0,6.5 0,6.5 -6.5,0 -6.5,0 0,13 0,13 6.5,0 6.5,0 0,6.5 0,6.5 6.5,0 6.5,0 0,6.5 0,6.5 6.5,0 6.5,0 0,-6.5 z m -13,-13 0,-6.5 -6.5,0 -6.5,0 0,-6.5 0,-6.5 6.5,0 6.5,0 0,6.5 0,6.5 6.5,0 6.5,0 0,6.5 0,6.5 -6.5,0 -6.5,0 0,-6.5 z m -78,78 0,-19.5 13,0 13,0 0,-6.5 0,-6.5 6.5,0 6.5,0 0,-6.5 0,-6.5 6.5,0 6.5,0 0,19.5 0,19.5 -6.5,0 -6.5,0 0,-6.5 0,-6.5 -6.5,0 -6.5,0 0,13 0,13 -6.5,0 -6.5,0 0,6.5 0,6.5 -6.5,0 -6.5,0 0,-19.5 z m -156.00001,-65 0,-6.5 6.5,0 6.5,0 0,6.5 0,6.5 -6.5,0 -6.5,0 0,-6.5 z m 65.00001,-39 0,-6.5 -13,0 -13.00001,0 0,-6.5 0,-6.5 13.00001,0 13,0 0,6.5 0,6.5 6.5,0 6.5,0 0,6.5 0,6.5 -6.5,0 -6.5,0 0,-6.5 z m 104,-91 0,-19.5 -6.5,0 -6.5,0 0,6.5 0,6.5 -6.5,0 -6.5,0 0,-6.5 0,-6.5 6.5,0 6.5,0 0,-6.5 0,-6.5 13,0 13,0 0,26 0,26 -6.5,0 -6.5,0 0,-19.5 z m -52,-13 0,-6.5 -6.5,0 -6.5,0 0,-6.5 0,-6.5 13,0 13,0 0,-6.5 0,-6.5 -6.5,0 -6.5,0 0,-6.5 0,-6.5 -6.5,0 -6.5,0 0,6.5 0,6.5 -6.5,0 -6.5,0 0,-13 0,-13 13,0 13,0 0,6.5 0,6.5 6.5,0 6.5,0 0,-19.5 0,-19.5 6.5,0 6.5,0 0,6.5 0,6.5 6.5,0 6.5,0 0,6.5 0,6.5 6.5,0 6.5,0 0,6.5 0,6.5 -6.5,0 -6.5,0 0,6.5 0,6.5 -6.5,0 -6.5,0 0,6.5 0,6.5 -6.5,0 -6.5,0 0,13 0,13 -6.5,0 -6.5,0 0,-6.5 z m -39,-13 0,-6.5 6.5,0 6.5,0 0,6.5 0,6.5 -6.5,0 -6.5,0 0,-6.5 z m -26,-13 0,-6.5 6.5,0 6.5,0 0,-6.5 0,-6.5 6.5,0 6.5,0 0,6.5 0,6.5 -6.5,0 -6.5,0 0,6.5 0,6.5 -6.5,0 -6.5,0 0,-6.5 z m 130,-19.5 0,-13 6.5,0 6.5,0 0,13 0,13 -6.5,0 -6.5,0 0,-13 z m 26,6.5 0,-6.5 6.5,0 6.5,0 0,-6.5 0,-6.5 6.5,0 6.5,0 0,6.5 0,6.5 -6.5,0 -6.5,0 0,6.5 0,6.5 -6.5,0 -6.5,0 0,-6.5 z m -13,318.5 0,-13 -6.5,0 -6.5,0 0,-6.5 0,-6.5 -6.5,0 -6.5,0 0,6.5 0,6.5 6.5,0 6.5,0 0,13 0,13.00001 6.5,0 6.5,0 0,-13.00001 z m 130,-6.5 0,-6.5 -6.5,0 -6.5,0 0,6.5 0,6.5 6.5,0 6.5,0 0,-6.5 z m -91,-13 0,-6.5 6.5,0 6.5,0 0,-6.5 0,-6.5 -6.5,0 -6.5,0 0,-13 0,-13 6.5,0 6.5,0 0,6.5 0,6.5 6.5,0 6.5,0 0,-6.5 0,-6.5 -6.5,0 -6.5,0 0,-6.5 0,-6.5 -6.5,0 -6.5,0 0,6.5 0,6.5 -6.5,0 -6.5,0 0,26 0,26 6.5,0 6.5,0 0,-6.5 z m 78,-26 0,-19.5 -19.5,0 -19.5,0 0,19.5 0,19.5 19.5,0 19.5,0 0,-19.5 z m -26,0 0,-6.5 6.5,0 6.5,0 0,6.5 0,6.5 -6.5,0 -6.5,0 0,-6.5 z m 51.99999,13 0,-6.5 -6.5,0 -6.49999,0 0,6.5 0,6.5 6.49999,0 6.5,0 0,-6.5 z m -390,-65 0,-6.5 6.5,0 6.5,0 0,-6.5 0,-6.5 -6.5,0 -6.5,0 0,6.5 0,6.5 -6.5,0 -6.50004,0 0,6.5 0,6.5 6.50004,0 6.5,0 0,-6.5 z m 13,-143 0,-6.5 -13,0 -13.00004,0 0,6.5 0,6.5 13.00004,0 13,0 0,-6.5 z m 39,-6.5 0,-13 -6.5,0 -6.5,0 0,-6.5 0,-6.5 -6.5,0 -6.5,0 0,6.5 0,6.5 6.5,0 6.5,0 0,6.5 0,6.5 -6.5,0 -6.5,0 0,6.5 0,6.5 13,0 13,0 0,-13 z m 39,6.5 0,-6.5 -13,0 -13,0 0,6.5 0,6.5 13,0 13,0 0,-6.5 z m -78,-32.5 0,-13 -6.5,0 -6.5,0 0,13 0,13 6.5,0 6.5,0 0,-13 z m 104.00001,6.5 0,-6.5 -13,0 -13.00001,0 0,-6.5 0,-6.5 -6.5,0 -6.5,0 0,6.5 0,6.5 6.5,0 6.5,0 0,6.5 0,6.5 13.00001,0 13,0 0,-6.5 z m 221,-39 0,-6.5 -19.5,0 -19.5,0 0,6.5 0,6.5 19.5,0 19.5,0 0,-6.5 z m 64.99999,338.00001 0,-6.5 13,0 13,0 0,6.5 0,6.49999 -13,0 -13,0 0,-6.49999 z m -64.99999,-13 0,-6.5 6.5,0 6.5,0 0,6.5 0,6.5 -6.5,0 -6.5,0 0,-6.5 z M 69.999956,574.36059 l 0,-13 6.5,0 6.499996,0 0,-13 0,-13 -6.499996,0 -6.5,0 0,-6.5 0,-6.5 6.5,0 6.499996,0 0,6.5 0,6.5 6.5,0 6.5,0 0,13 0,13 -6.5,0 -6.5,0 0,6.5 0,6.5 6.5,0 6.5,0 0,6.5 0,6.5 -13,0 -12.999996,0 0,-13 z m 77.999994,-201.5 0,-6.5 6.5,0 6.5,0 0,6.5 0,6.5 -6.5,0 -6.5,0 0,-6.5 z m -77.999994,-65 0,-45.5 45.499994,0 45.5,0 0,45.5 0,45.5 -45.5,0 -45.499994,0 0,-45.5 z m 77.999994,0 0,-32.5 -32.5,0 -32.499998,0 0,32.5 0,32.5 32.499998,0 32.5,0 0,-32.5 z m -51.999998,0 0,-19.5 19.499998,0 19.5,0 0,19.5 0,19.5 -19.5,0 -19.499998,0 0,-19.5 z m 364.000008,0 0,-45.5 45.49999,0 45.5,0 0,45.5 0,45.5 -45.5,0 -45.49999,0 0,-45.5 z m 77.99999,0 0,-32.5 -32.5,0 -32.49999,0 0,32.5 0,32.5 32.49999,0 32.5,0 0,-32.5 z m -51.99999,0 0,-19.5 19.49999,0 19.5,0 0,19.5 0,19.5 -19.5,0 -19.49999,0 0,-19.5 z"
       id="path2996"
       inkscape:connector-curvature="0" />
  </g>
</svg>
